HIERARCHY
ROOT Hips
{
	OFFSET -0.001795 -0.223333 0.028219
	CHANNELS 6 Xposition Yposition Zposition Zrotation Yrotation Xrotation 
	JOINT LeftUpLeg
	{
		OFFSET 0.069520 -0.091406 -0.006815
		CHANNELS 3 Zrotation Yrotation Xrotation
		JOINT LeftLeg
		{
			OFFSET 0.034277 -0.375199 -0.004496
			CHANNELS 3 Zrotation Yrotation Xrotation
			JOINT LeftFoot
			{
				OFFSET -0.013596 -0.397961 -0.043693
				CHANNELS 3 Zrotation Yrotation Xrotation
				JOINT LeftToe
				{
					OFFSET 0.026358 -0.055791 0.119288
					CHANNELS 3 Zrotation Yrotation Xrotation
					End Site
					{
						OFFSET 0.000000 0.000000 0.000000
					}
				}
			}
		}
	}
	JOINT RightUpLeg
	{
		OFFSET -0.067670 -0.090522 -0.004320
		CHANNELS 3 Zrotation Yrotation Xrotation
		JOINT RightLeg
		{
			OFFSET -0.038290 -0.382569 -0.008850
			CHANNELS 3 Zrotation Yrotation Xrotation
			JOINT RightFoot
			{
				OFFSET 0.015774 -0.398415 -0.042312
				CHANNELS 3 Zrotation Yrotation Xrotation
				JOINT RightToe
				{
					OFFSET -0.025372 -0.048144 0.123348
					CHANNELS 3 Zrotation Yrotation Xrotation
					End Site
					{
						OFFSET 0.000000 0.000000 0.000000
					}
				}
			}
		}
	}
	JOINT Spine
	{
		OFFSET -0.002533 0.108963 -0.026696
		CHANNELS 3 Zrotation Yrotation Xrotation
		JOINT Spine1
		{
			OFFSET 0.005487 0.135180 0.001092
			CHANNELS 3 Zrotation Yrotation Xrotation
			JOINT Spine2
			{
				OFFSET 0.001457 0.052922 0.025425
				CHANNELS 3 Zrotation Yrotation Xrotation
				JOINT Neck
				{
					OFFSET -0.002778 0.213870 -0.042857
					CHANNELS 3 Zrotation Yrotation Xrotation
					JOINT Head
					{
						OFFSET 0.005152 0.064970 0.051349
						CHANNELS 3 Zrotation Yrotation Xrotation
						End Site
						{
							OFFSET 0.000000 0.000000 0.000000
						}
					}
				}
				JOINT LeftShoulder
				{
					OFFSET 0.078845 0.121749 -0.034090
					CHANNELS 3 Zrotation Yrotation Xrotation
					JOINT LeftArm
					{
						OFFSET 0.090977 0.030469 -0.008868
						CHANNELS 3 Zrotation Yrotation Xrotation
						JOINT LeftForeArm
						{
							OFFSET 0.259612 -0.012772 -0.027456
							CHANNELS 3 Zrotation Yrotation Xrotation
							JOINT LeftHand
							{
								OFFSET 0.249234 0.008986 -0.001171
								CHANNELS 3 Zrotation Yrotation Xrotation
								End Site
								{
									OFFSET 0.000000 0.000000 0.000000
								}
							}
						}
					}
				}
				JOINT RightShoulder
				{
					OFFSET -0.081759 0.118833 -0.038615
					CHANNELS 3 Zrotation Yrotation Xrotation
					JOINT RightArm
					{
						OFFSET -0.096012 0.032551 -0.009143
						CHANNELS 3 Zrotation Yrotation Xrotation
						JOINT RightForeArm
						{
							OFFSET -0.253742 -0.013329 -0.021401
							CHANNELS 3 Zrotation Yrotation Xrotation
							JOINT RightHand
							{
								OFFSET -0.255298 0.007772 -0.005559
								CHANNELS 3 Zrotation Yrotation Xrotation
								End Site
								{
									OFFSET 0.000000 0.000000 0.000000
								}
							}
						}
					}
				}
			}
		}
	}
}
MOTION
Frames: 8
Frame Time: 0.050000
0.000000 0.620072 0.000000 -1.483733 -0.316017 -17.102788 10.829846 0.123126 -57.935183 -17.105357 14.801381 85.635769 4.335013 4.765154 -12.530702 0.000000 0.000000 0.000000 -9.294320 1.314697 -58.834931 18.713364 -16.032047 85.633945 -3.620237 -6.042560 -8.404050 0.000000 0.000000 0.000000 4.070480 -2.052517 29.517377 -1.852272 1.020290 -7.479207 -2.333614 2.835107 6.084735 7.973119 -3.803093 -14.861483 0.000000 0.000000 0.000000 -17.471156 -7.048139 1.071102 -52.869369 -8.054928 -3.065481 -4.999367 -19.132751 1.427033 0.000000 0.000000 0.000000 17.034106 1.270508 -0.195270 57.696066 7.921539 -2.394128 4.241414 23.464459 1.741946 0.000000 0.000000 0.000000 
0.000096 0.617124 -0.000017 -1.924038 -0.405517 -16.796682 11.306741 0.390947 -59.468622 -16.147288 14.106934 87.332913 3.744625 3.506328 -11.718817 0.000000 0.000000 0.000000 -8.355374 1.931536 -60.613006 17.333699 -15.047409 87.518870 -2.467947 -3.641224 -6.102737 0.000000 0.000000 0.000000 5.129485 -2.204294 28.596399 -1.858927 1.012567 -6.093718 -3.552803 3.140568 6.150578 9.066856 -4.391300 -15.216860 0.000000 0.000000 0.000000 -17.401923 -7.308530 1.068656 -52.829874 -9.304754 -2.455474 -4.460399 -19.606437 1.346124 0.000000 0.000000 0.000000 17.547019 0.516791 -0.464567 59.122705 7.398262 -2.689406 3.698569 25.969310 1.903944 0.000000 0.000000 0.000000 
0.000285 0.616354 -0.000170 -1.303055 -0.617371 -16.850190 11.128925 0.400845 -59.717979 -16.541877 14.786883 87.580214 3.228276 2.457577 -10.946955 0.000000 0.000000 0.000000 -9.210121 1.555260 -60.829626 18.228654 -15.776319 87.056843 -2.994355 -4.873394 -6.807043 0.000000 0.000000 0.000000 5.043939 -2.144115 28.409702 -1.828702 0.989748 -5.549280 -3.853959 3.120821 5.796114 7.969612 -3.713234 -14.950762 0.000000 0.000000 0.000000 -17.726720 -7.968050 1.388322 -52.464170 -8.985742 -2.542724 -3.892772 -17.849366 1.146235 0.000000 0.000000 0.000000 18.422093 0.911452 -0.335679 57.530773 8.252459 -2.217439 3.604092 24.345806 1.715060 0.000000 0.000000 0.000000 
0.000356 0.616266 -0.000429 -1.117093 -1.691253 -16.671841 11.454060 0.999857 -59.813727 -16.268464 14.972324 87.771832 3.187056 2.072847 -11.439471 0.000000 0.000000 0.000000 -8.600099 2.349397 -61.441632 18.014132 -15.248099 87.597668 -2.420894 -3.797822 -5.539293 0.000000 0.000000 0.000000 4.609008 -1.974665 28.524308 -1.981690 1.035378 -5.853401 -3.221270 3.563180 5.790040 7.267514 -3.503433 -13.573731 0.000000 0.000000 0.000000 -16.998566 -7.087152 1.067623 -53.718403 -9.289988 -2.524460 -4.789906 -18.203533 1.314861 0.000000 0.000000 0.000000 17.684722 0.976614 -0.325123 57.133479 7.987229 -2.322750 5.553962 24.451182 2.099378 0.000000 0.000000 0.000000 
0.000386 0.616836 -0.000896 -0.919630 -1.991363 -16.880055 11.083223 0.892844 -59.027421 -16.215394 14.916946 87.118744 3.715764 2.954696 -12.598735 0.000000 0.000000 0.000000 -8.831290 2.322876 -61.213244 18.585033 -15.580897 87.047355 -2.641154 -4.931821 -4.409189 0.000000 0.000000 0.000000 4.069867 -1.863764 29.028507 -1.937829 1.009755 -5.633245 -2.799998 3.628012 5.351407 7.256343 -3.545128 -13.339843 0.000000 0.000000 0.000000 -17.639935 -7.251960 1.123463 -52.892415 -9.003518 -2.559470 -5.800234 -17.821508 1.442754 0.000000 0.000000 0.000000 17.444064 1.232693 -0.244489 57.583986 8.120109 -2.216295 5.391647 23.986354 2.004006 0.000000 0.000000 0.000000 
0.000406 0.617158 -0.001346 -1.202582 -1.767705 -17.090970 11.077606 0.787327 -58.899288 -15.917907 14.475714 87.291212 3.463956 2.203701 -12.682112 0.000000 0.000000 0.000000 -8.539419 2.390993 -61.197940 18.042165 -15.169476 87.369105 -2.223438 -3.611054 -4.727211 0.000000 0.000000 0.000000 4.310059 -1.940098 29.108742 -1.847166 0.971127 -4.977303 -2.597844 3.141758 5.150814 6.918527 -3.431293 -12.840596 0.000000 0.000000 0.000000 -18.214455 -7.106443 1.083023 -52.965854 -8.922538 -2.583913 -5.516184 -18.395827 1.451890 0.000000 0.000000 0.000000 17.608041 1.476256 -0.215058 57.152935 7.987537 -2.246084 5.874077 23.992703 2.073003 0.000000 0.000000 0.000000 
0.000405 0.618487 -0.001821 -1.181536 -1.707205 -17.084703 10.961284 0.697158 -58.660568 -15.789160 14.283273 87.187088 3.487176 2.149185 -12.914702 0.000000 0.000000 0.000000 -8.493859 2.392410 -61.121532 17.876437 -14.972143 87.243802 -2.208188 -3.628153 -4.593138 0.000000 0.000000 0.000000 4.357825 -1.953442 29.083077 -1.829608 0.964895 -5.136144 -2.590098 3.067406 5.578646 7.084036 -3.512697 -13.142207 0.000000 0.000000 0.000000 -18.421399 -7.171856 1.130967 -52.582317 -8.851901 -2.631109 -5.779820 -18.603761 1.515593 0.000000 0.000000 0.000000 17.718171 1.393738 -0.258615 57.206436 8.073493 -2.250031 5.746252 24.464630 2.100604 0.000000 0.000000 0.000000 
0.000323 0.618820 -0.002276 -1.210510 -1.554924 -17.157856 11.006424 0.668625 -58.704705 -15.905501 14.394892 87.404657 3.545988 2.391604 -12.783696 0.000000 0.000000 0.000000 -8.267560 2.472907 -61.189066 17.401785 -14.617406 87.700594 -1.985252 -2.961736 -4.665929 0.000000 0.000000 0.000000 4.272331 -1.951570 29.115011 -1.679756 0.898682 -5.168286 -2.526890 2.974527 5.749480 7.011061 -3.422602 -13.428732 0.000000 0.000000 0.000000 -18.343080 -7.366925 1.249507 -52.606052 -8.518227 -2.803170 -5.734795 -19.464863 1.582243 0.000000 0.000000 0.000000 17.914546 1.475839 -0.227420 57.046554 8.016083 -2.298175 5.726716 24.768485 2.126788 0.000000 0.000000 0.000000 
